<?xml version="1.0" encoding="utf-8"?>
<!-- Generator: Adobe Illustrator 16.0.0, SVG Export Plug-In . SVG Version: 6.00 Build 0)  -->
<!DOCTYPE svg PUBLIC "-//W3C//DTD SVG 1.1//EN" "http://www.w3.org/Graphics/SVG/1.1/DTD/svg11.dtd">
<svg version="1.1" id="Capa_1" xmlns="http://www.w3.org/2000/svg" xmlns:xlink="http://www.w3.org/1999/xlink" x="0px" y="0px"
	 width="800px" height="800px" viewBox="0 0 800 800" enable-background="new 0 0 800 800" xml:space="preserve">
<g>
	<path fill="#ED1F34" d="M497.178,388.097l-0.113-0.87c-2.991-22.844-14.063-44.013-31.177-59.605l-1.908-1.739h311.214v62.215
		H497.178z"/>
	<path fill="#ED1F34" d="M466.562,326.882c16.867,15.369,28.388,36.487,31.494,60.215h276.138v-60.215H466.562z"/>
	<path fill="#ED1F34" d="M24.807,388.097v-62.215h311.214l-1.909,1.739c-17.113,15.593-28.185,36.761-31.176,59.605l-0.114,0.87
		H24.807z"/>
	<path fill="#ED1F34" d="M301.944,387.097c3.106-23.728,14.627-44.846,31.494-60.215H25.807v60.215H301.944z"/>
	<path fill="#FFE000" d="M24.807,560.14v-62.215h39.709c6.563,0,11.903-5.34,11.903-11.903v-1h27.806v1
		c0,6.563,5.34,11.903,11.903,11.903h659.064v62.215H24.807z"/>
	<path fill="#FFE000" d="M774.193,559.14v-60.215H116.129c-7.126,0-12.903-5.775-12.903-12.903H77.419
		c0,7.128-5.777,12.903-12.903,12.903H25.807v60.215H774.193z"/>
	<rect x="24.807" y="153.839" fill="#333333" width="750.387" height="62.215"/>
	<rect x="25.807" y="154.839" fill="#333333" width="748.387" height="60.215"/>
	<rect x="24.807" y="239.86" fill="#FFE000" width="750.387" height="62.215"/>
	<rect x="25.807" y="240.86" fill="#FFE000" width="748.387" height="60.215"/>
	<path fill="#333333" d="M76.419,487.021v-1c0-6.563-5.34-11.903-11.903-11.903H24.807v-62.215h278.015l0.114,0.87
		c2.991,22.845,14.063,44.013,31.176,59.605l1.909,1.739H116.129c-6.563,0-11.903,5.34-11.903,11.903v1H76.419z"/>
	<path fill="#333333" d="M116.129,473.118h217.31c-16.867-15.368-28.388-36.486-31.494-60.215H25.807v60.215h38.709
		c7.126,0,12.903,5.775,12.903,12.903h25.806C103.226,478.894,109.003,473.118,116.129,473.118z"/>
	<path fill="#333333" d="M463.979,474.118l1.908-1.739c17.114-15.593,28.186-36.761,31.177-59.605l0.113-0.87h278.016v62.215
		H463.979z"/>
	<path fill="#333333" d="M498.056,412.903c-3.106,23.729-14.627,44.847-31.494,60.215h307.632v-60.215H498.056z"/>
	<rect x="24.807" y="583.946" fill="#ED1F34" width="750.387" height="62.215"/>
	<rect x="25.807" y="584.946" fill="#ED1F34" width="748.387" height="60.215"/>
	<path d="M787.097,129.032H12.903C5.777,129.032,0,134.808,0,141.936v516.129c0,7.128,5.777,12.903,12.903,12.903h774.193
		c7.128,0,12.903-5.775,12.903-12.903V141.936C800,134.808,794.225,129.032,787.097,129.032z M774.193,154.839v60.215H25.807
		v-60.215H774.193z M64.516,498.925c7.126,0,12.903-5.775,12.903-12.903s-5.777-12.903-12.903-12.903H25.807v-60.215h276.138
		c3.106,23.729,14.627,44.847,31.494,60.215h-217.31c-7.126,0-12.903,5.775-12.903,12.903s5.777,12.903,12.903,12.903h658.064
		v60.215H25.807v-60.215H64.516z M473.118,400c0,40.318-32.8,73.118-73.118,73.118s-73.118-32.8-73.118-73.118
		s32.8-73.118,73.118-73.118S473.118,359.682,473.118,400z M333.438,326.882c-16.867,15.369-28.388,36.487-31.494,60.215H25.807
		v-60.215H333.438z M466.562,473.118c16.867-15.368,28.388-36.486,31.494-60.215h276.138v60.215H466.562z M498.056,387.097
		c-3.106-23.728-14.627-44.846-31.494-60.215h307.632v60.215H498.056z M25.807,301.075V240.86h748.387v60.215H25.807z
		 M25.807,645.161v-60.215h748.387v60.215H25.807z"/>
	<path fill="#FFFFFF" d="M400,326.882c-40.318,0-73.118,32.8-73.118,73.118s32.8,73.118,73.118,73.118s73.118-32.8,73.118-73.118
		S440.318,326.882,400,326.882z M447.864,392.148c6.393,3.15,9.021,10.885,5.87,17.278c-3.15,6.392-10.884,9.022-17.278,5.871
		l-9.972-4.914c-3.361,4.931-8.068,8.865-13.583,11.304v24.765c0,7.128-5.775,12.903-12.903,12.903
		c-7.126,0-12.903-5.775-12.903-12.903v-24.775c-11.253-4.976-19.136-16.227-19.136-29.302c0-1.977,0.454-3.93,1.328-5.704
		l10.783-21.88c-3.919-2.214-6.564-6.417-6.564-11.241c0-7.127,5.776-12.903,12.902-12.903h13.588c4.46,0,8.603,2.302,10.956,6.089
		c2.355,3.785,2.589,8.52,0.618,12.518l-17.408,35.317c0.89,2.355,3.17,4.036,5.833,4.036c3.436,0,6.231-2.795,6.231-6.231
		c0-4.459,2.302-8.603,6.088-10.956c3.785-2.358,8.523-2.589,12.519-0.618L447.864,392.148z"/>
	<path d="M412.32,381.417c-3.787,2.354-6.089,6.497-6.089,10.956c0,3.436-2.796,6.231-6.231,6.231c-2.663,0-4.942-1.681-5.832-4.036
		l17.407-35.317c1.972-3.998,1.737-8.733-0.618-12.518c-2.354-3.787-6.498-6.089-10.957-6.089h-13.588
		c-7.126,0-12.903,5.776-12.903,12.903c0,4.824,2.646,9.027,6.565,11.241l-10.784,21.88c-0.874,1.774-1.328,3.727-1.328,5.704
		c0,13.076,7.882,24.327,19.137,29.302v24.775c0,7.128,5.777,12.903,12.903,12.903c7.128,0,12.903-5.775,12.903-12.903v-24.767
		c5.512-2.438,10.221-6.372,13.582-11.304l9.972,4.914c6.396,3.151,14.129,0.521,17.278-5.871c3.15-6.393,0.523-14.127-5.87-17.277
		l-23.025-11.348C420.843,378.829,416.105,379.059,412.32,381.417z"/>
</g>
</svg>
